<?xml version="1.0" encoding="UTF-8" standalone="no"?>
<svg
   xmlns:osb="http://www.openswatchbook.org/uri/2009/osb"
   xmlns:dc="http://purl.org/dc/elements/1.1/"
   xmlns:cc="http://creativecommons.org/ns#"
   xmlns:rdf="http://www.w3.org/1999/02/22-rdf-syntax-ns#"
   xmlns:svg="http://www.w3.org/2000/svg"
   xmlns="http://www.w3.org/2000/svg"
   xmlns:xlink="http://www.w3.org/1999/xlink"
   xmlns:sodipodi="http://sodipodi.sourceforge.net/DTD/sodipodi-0.dtd"
   xmlns:inkscape="http://www.inkscape.org/namespaces/inkscape"
   width="100mm"
   height="100mm"
   viewBox="0 0 100 100"
   version="1.1"
   id="svg8"
   inkscape:version="1.0.2-2 (e86c870879, 2021-01-15)"
   sodipodi:docname="Icon_Inference.svg"
   inkscape:export-filename="C:\Users\Robert\Documents\Projekte\KI\dymtflite\DymTfLite\Resources\Images\Icon_Inference.png"
   inkscape:export-xdpi="99.5"
   inkscape:export-ydpi="99.5">
  <defs
     id="defs2">
    <linearGradient
       inkscape:collect="always"
       id="linearGradient4804">
      <stop
         style="stop-color:#ff9900;stop-opacity:1"
         offset="0"
         id="stop4800" />
      <stop
         style="stop-color:#ff9a00;stop-opacity:0"
         offset="1"
         id="stop4802" />
    </linearGradient>
    <linearGradient
       inkscape:collect="always"
       id="linearGradient4796">
      <stop
         style="stop-color:#000000;stop-opacity:1;"
         offset="0"
         id="stop4792" />
      <stop
         style="stop-color:#000000;stop-opacity:0;"
         offset="1"
         id="stop4794" />
    </linearGradient>
    <marker
       style="overflow:visible"
       id="DotM"
       refX="0.0"
       refY="0.0"
       orient="auto"
       inkscape:stockid="DotM"
       inkscape:isstock="true">
      <path
         transform="scale(0.4) translate(7.4, 1)"
         style="fill-rule:evenodd;stroke:#00b0b0;stroke-width:1pt;stroke-opacity:1;fill:#00b0b0;fill-opacity:1"
         d="M -2.5,-1.0 C -2.5,1.7600000 -4.7400000,4.0 -7.5,4.0 C -10.260000,4.0 -12.5,1.7600000 -12.5,-1.0 C -12.5,-3.7600000 -10.260000,-6.0 -7.5,-6.0 C -4.7400000,-6.0 -2.5,-3.7600000 -2.5,-1.0 z "
         id="path3515" />
    </marker>
    <marker
       style="overflow:visible"
       id="DotS"
       refX="0.0"
       refY="0.0"
       orient="auto"
       inkscape:stockid="DotS"
       inkscape:isstock="true">
      <path
         transform="scale(0.2) translate(7.4, 1)"
         style="fill-rule:evenodd;stroke:#00b0b0;stroke-width:1pt;stroke-opacity:1;fill:#00b0b0;fill-opacity:1"
         d="M -2.5,-1.0 C -2.5,1.7600000 -4.7400000,4.0 -7.5,4.0 C -10.260000,4.0 -12.5,1.7600000 -12.5,-1.0 C -12.5,-3.7600000 -10.260000,-6.0 -7.5,-6.0 C -4.7400000,-6.0 -2.5,-3.7600000 -2.5,-1.0 z "
         id="path3518" />
    </marker>
    <marker
       style="overflow:visible"
       id="DotL"
       refX="0.0"
       refY="0.0"
       orient="auto"
       inkscape:stockid="DotL"
       inkscape:isstock="true">
      <path
         transform="scale(0.8) translate(7.4, 1)"
         style="fill-rule:evenodd;stroke:#00b0b0;stroke-width:1pt;stroke-opacity:1;fill:#00b0b0;fill-opacity:1"
         d="M -2.5,-1.0 C -2.5,1.7600000 -4.7400000,4.0 -7.5,4.0 C -10.260000,4.0 -12.5,1.7600000 -12.5,-1.0 C -12.5,-3.7600000 -10.260000,-6.0 -7.5,-6.0 C -4.7400000,-6.0 -2.5,-3.7600000 -2.5,-1.0 z "
         id="path3512" />
    </marker>
    <linearGradient
       id="linearGradient3413"
       osb:paint="solid">
      <stop
         style="stop-color:#000000;stop-opacity:1;"
         offset="0"
         id="stop3411" />
    </linearGradient>
    <linearGradient
       id="linearGradient1489"
       osb:paint="solid">
      <stop
         style="stop-color:#000000;stop-opacity:1;"
         offset="0"
         id="stop1487" />
    </linearGradient>
    <filter
       y="-0.10861127"
       height="1.2172225"
       inkscape:menu-tooltip="Darkens the edge with an inner blur and adds a flexible glow"
       inkscape:menu="Shadows and Glows"
       inkscape:label="Dark and Glow"
       style="color-interpolation-filters:sRGB"
       id="filter852"
       x="-0.047681667"
       width="1.0953633">
      <feGaussianBlur
         stdDeviation="2.7784743"
         result="result6"
         id="feGaussianBlur842" />
      <feComposite
         result="result8"
         in="SourceGraphic"
         operator="atop"
         in2="result6"
         id="feComposite844" />
      <feComposite
         result="result9"
         operator="over"
         in2="SourceAlpha"
         in="result8"
         id="feComposite846" />
      <feColorMatrix
         values="1 0 0 0 0 0 1 0 0 0 0 0 1 0 0 0 0 0 1 0 "
         result="result10"
         id="feColorMatrix848" />
      <feBlend
         in="result10"
         mode="normal"
         in2="result6"
         id="feBlend850" />
    </filter>
    <filter
       y="-0.046586856"
       height="1.0931737"
       inkscape:menu-tooltip="Darkens the edge with an inner blur and adds a flexible glow"
       inkscape:menu="Shadows and Glows"
       inkscape:label="Dark and Glow"
       style="color-interpolation-filters:sRGB;"
       id="filter4560"
       x="-0.040481291"
       width="1.0809626">
      <feGaussianBlur
         stdDeviation="1.5660185"
         result="result6"
         id="feGaussianBlur4550" />
      <feComposite
         result="result8"
         in="SourceGraphic"
         operator="atop"
         in2="result6"
         id="feComposite4552" />
      <feComposite
         result="result9"
         operator="over"
         in2="SourceAlpha"
         in="result8"
         id="feComposite4554" />
      <feColorMatrix
         values="1 0 0 0 0 0 1 0 0 0 0 0 1 0 0 0 0 0 1 0 "
         result="result10"
         id="feColorMatrix4556" />
      <feBlend
         in="result10"
         mode="normal"
         in2="result6"
         id="feBlend4558" />
    </filter>
    <linearGradient
       inkscape:collect="always"
       xlink:href="#linearGradient3413"
       id="linearGradient4788"
       gradientUnits="userSpaceOnUse"
       x1="0.027024405"
       y1="50.598077"
       x2="100.88208"
       y2="50.598077" />
    <linearGradient
       inkscape:collect="always"
       xlink:href="#linearGradient4796"
       id="linearGradient4798"
       x1="90.48201"
       y1="30.400335"
       x2="175.34293"
       y2="31.515457"
       gradientUnits="userSpaceOnUse"
       gradientTransform="matrix(1.9667915,0,0,2.989211,-180.41772,-40.873016)" />
    <filter
       y="-0.061920333"
       height="1.1238407"
       inkscape:menu-tooltip="Darkens the edge with an inner blur and adds a flexible glow"
       inkscape:menu="Shadows and Glows"
       inkscape:label="Dark and Glow"
       style="color-interpolation-filters:sRGB;"
       id="filter4863"
       x="-0.053805196"
       width="1.1076104">
      <feGaussianBlur
         stdDeviation="2.0814538"
         result="result6"
         id="feGaussianBlur4853" />
      <feComposite
         result="result8"
         in="SourceGraphic"
         operator="atop"
         in2="result6"
         id="feComposite4855" />
      <feComposite
         result="result9"
         operator="over"
         in2="SourceAlpha"
         in="result8"
         id="feComposite4857" />
      <feColorMatrix
         values="1 0 0 0 0 0 1 0 0 0 0 0 1 0 0 0 0 0 1 0 "
         result="result10"
         id="feColorMatrix4859" />
      <feBlend
         in="result10"
         mode="normal"
         in2="result6"
         id="feBlend4861" />
    </filter>
    <filter
       y="-0.07976684"
       height="1.1595337"
       inkscape:menu-tooltip="Darkens the edge with an inner blur and adds a flexible glow"
       inkscape:menu="Shadows and Glows"
       inkscape:label="Dark and Glow"
       style="color-interpolation-filters:sRGB;"
       id="filter983"
       x="-0.066653526"
       width="1.1333071">
      <feGaussianBlur
         stdDeviation="2.6813646"
         result="result6"
         id="feGaussianBlur973" />
      <feComposite
         result="result8"
         in="SourceGraphic"
         operator="atop"
         in2="result6"
         id="feComposite975" />
      <feComposite
         result="result9"
         operator="over"
         in2="SourceAlpha"
         in="result8"
         id="feComposite977" />
      <feColorMatrix
         values="1 0 0 0 0 0 1 0 0 0 0 0 1 0 0 0 0 0 1 0 "
         result="result10"
         id="feColorMatrix979" />
      <feBlend
         in="result10"
         mode="normal"
         in2="result6"
         id="feBlend981" />
    </filter>
    <linearGradient
       inkscape:collect="always"
       xlink:href="#linearGradient4804"
       id="linearGradient983"
       gradientUnits="userSpaceOnUse"
       gradientTransform="translate(-2.023157,0.944995)"
       x1="110.76025"
       y1="-28.204941"
       x2="-23.149651"
       y2="95.771187" />
    <filter
       inkscape:collect="always"
       style="color-interpolation-filters:sRGB"
       id="filter1702"
       x="-0.25632771"
       width="1.5126554"
       y="-0.30675725"
       height="1.6135145">
      <feGaussianBlur
         inkscape:collect="always"
         stdDeviation="10.311654"
         id="feGaussianBlur1704" />
    </filter>
  </defs>
  <sodipodi:namedview
     id="base"
     pagecolor="#ffffff"
     bordercolor="#666666"
     borderopacity="1.0"
     inkscape:pageopacity="0.0"
     inkscape:pageshadow="2"
     inkscape:zoom="1.9818607"
     inkscape:cx="96.207994"
     inkscape:cy="210.02723"
     inkscape:document-units="mm"
     inkscape:current-layer="layer3"
     inkscape:document-rotation="0"
     showgrid="false"
     inkscape:window-width="2400"
     inkscape:window-height="1271"
     inkscape:window-x="2391"
     inkscape:window-y="-9"
     inkscape:window-maximized="1" />
  <metadata
     id="metadata5">
    <rdf:RDF>
      <cc:Work
         rdf:about="">
        <dc:format>image/svg+xml</dc:format>
        <dc:type
           rdf:resource="http://purl.org/dc/dcmitype/StillImage" />
        <dc:title></dc:title>
      </cc:Work>
    </rdf:RDF>
  </metadata>
  <g
     inkscape:groupmode="layer"
     id="layer3"
     inkscape:label="WhiteBack">
    <rect
       style="fill:#ffffff;stroke:none;stroke-width:0.264999;stroke-linecap:round;stroke-linejoin:round;stroke-opacity:1;paint-order:stroke fill markers;fill-opacity:0"
       id="rect2704"
       width="103.73143"
       height="105.19996"
       x="0"
       y="0" />
    <rect
       style="fill:#ffffff;fill-opacity:1;stroke:none;stroke-width:0.535047;stroke-linecap:round;stroke-linejoin:round;stroke-opacity:1;paint-order:stroke fill markers"
       id="rect2706"
       width="100"
       height="100"
       x="0"
       y="0" />
  </g>
  <g
     inkscape:label="Background"
     inkscape:groupmode="layer"
     id="layer1">
    <rect
       style="opacity:1;fill:url(#linearGradient4798);fill-opacity:1;stroke:none;stroke-width:6.06173;stroke-linecap:round;stroke-linejoin:round;stroke-miterlimit:4;stroke-dasharray:none;stroke-opacity:1;paint-order:stroke fill markers"
       id="rect4790"
       width="100"
       height="100"
       x="0"
       y="0" />
  </g>
  <g
     inkscape:groupmode="layer"
     id="g1620"
     inkscape:label="NNs copy"
     style="opacity:0.49201278;filter:url(#filter1702)">
    <path
       id="path1618"
       style="fill:none;stroke:url(#linearGradient983);stroke-width:2.5;stroke-linecap:round;stroke-linejoin:round;stroke-miterlimit:4;stroke-dasharray:none;stroke-opacity:1;paint-order:stroke fill markers"
       d="m 77.300443,39.883479 c -0.34427,2.120524 0.16264,3.088259 2.04939,4.460446 1.4413,1.048218 7.624873,-3.438623 9.175993,-2.592554 0.17639,0.09621 0.30776,0.261972 0.48221,0.361656 0.16484,0.09419 0.76249,0.03918 0.84387,0.120552 0.0284,0.02842 -0.0241,0.08841 0,0.120555 0.44719,0.59626 0.80814,1.172482 1.20552,1.808287 0.36131,0.578088 0.0947,-0.0259 0.48221,0.361659 0.0809,0.08088 0.28597,0.520761 0.36166,0.602763 0.38546,0.417581 0.8313,0.777843 1.20553,1.205526 1.09103,1.246897 2.19572,2.492378 3.13436,3.857681 0.278951,0.405741 0.445471,0.909312 0.723321,1.326078 M 21.228233,42.535637 c 0,1.174267 -0.85674,2.126198 -1.91358,2.126198 -1.05684,0 -1.91358,-0.951931 -1.91358,-2.126198 0,-1.174267 0.85674,-2.126198 1.91358,-2.126198 1.05684,0 1.91358,0.951931 1.91358,2.126198 z m 55.21307,9.282547 c 0,1.174267 -0.85674,2.126198 -1.91358,2.126198 -1.05684,0 -1.91357,-0.951931 -1.91357,-2.126198 0,-1.174267 0.85673,-2.126198 1.91357,-2.126198 1.05684,0 1.91358,0.951931 1.91358,2.126198 z M 65.350473,69.90107 c 0,1.17427 -0.85673,2.1262 -1.91357,2.1262 -1.05684,0 -1.91358,-0.95193 -1.91358,-2.1262 0,-1.17426 0.85674,-2.12619 1.91358,-2.12619 1.05684,0 1.91357,0.95193 1.91357,2.12619 z M 4.88461,52.729833 C 4.72744,51.624375 4.3619,50.528857 4.41309,49.413456 c 3.74667,-4.148225 1.614428,-3.031613 2.243543,-5.069531 0.51091,-1.839278 0.51542,-1.146405 0.60276,-2.893264 0.003,-0.06847 -0.14806,-2.476595 -0.12055,-2.531604 0.21169,-0.423387 0.93473,-0.392542 1.20553,-0.843868 0.19114,-0.318582 0.0484,-0.434768 0.12055,-0.723315 0.18207,-0.72829 0.37396,-1.45496 0.60276,-2.169946 0.13191,-0.412208 0.34535,-0.794938 0.48221,-1.205526 0.35832,-1.074971 0.52137,-2.179918 0.84387,-3.25492 0.2954,-0.984668 0.21931,-0.209087 0.36166,-1.205527 0.11818,-0.82728 -0.10368,-1.702154 0,-2.531602 0.12573,-1.005841 0.12055,-1.989962 0.12055,-3.013815 0,-0.244066 0.0127,-2.036698 0,-2.049394 -0.0921,-0.09213 -0.36166,-0.05456 -0.36166,0.120553 l -0.51818,-1.265409 m 9.73881,59.830262 c 0,1.174258 -0.85674,2.126198 -1.91358,2.126198 -1.05684,0 -1.91358,-0.95194 -1.91358,-2.126198 0,-1.17427 0.85674,-2.1262 1.91358,-2.1262 1.05684,0 1.91358,0.95193 1.91358,2.1262 z M 5.94771,51.312369 c 0,1.174267 -0.85674,2.126199 -1.91358,2.126199 -1.05684,0 -1.91358,-0.951932 -1.91358,-2.126199 0,-1.174267 0.85674,-2.126198 1.91358,-2.126198 1.05684,0 1.91358,0.951931 1.91358,2.126198 z m 42.845273,-9.969607 c 0,1.174267 -0.85674,2.126198 -1.91358,2.126198 -1.05684,0 -1.91358,-0.951931 -1.91358,-2.126198 0,-1.174267 0.85674,-2.126198 1.91358,-2.126198 1.05684,0 1.91358,0.951931 1.91358,2.126198 z M 33.484353,69.12508 c 0,1.17427 -0.85674,2.1262 -1.91358,2.1262 -1.05684,0 -1.91358,-0.95193 -1.91358,-2.1262 0,-1.17427 0.85674,-2.1262 1.91358,-2.1262 1.05684,0 1.91358,0.95193 1.91358,2.1262 z m 13.46592,-53.296697 c 0,1.174267 -0.85673,2.126198 -1.91357,2.126198 -1.05684,0 -1.91358,-0.951931 -1.91358,-2.126198 0,-1.174267 0.85674,-2.126198 1.91358,-2.126198 1.05684,0 1.91357,0.951931 1.91357,2.126198 z m -34.86964,4.819383 c 0,1.174267 -0.85674,2.126198 -1.91358,2.126198 -1.05684,0 -1.91358,-0.951931 -1.91358,-2.126198 0,-1.174267 0.85674,-2.126198 1.91358,-2.126198 1.05684,0 1.91358,0.951931 1.91358,2.126198 z m 73.14121,63.785942 c 0,1.17427 -0.85674,2.1262 -1.91358,2.1262 -1.05684,0 -1.91357,-0.95193 -1.91357,-2.1262 0,-1.17427 0.85673,-2.1262 1.91357,-2.1262 1.05684,0 1.91358,0.95193 1.91358,2.1262 z m -7.29995,-46.067627 c 0,1.174267 -0.85674,2.126198 -1.91358,2.126198 -1.05684,0 -1.91357,-0.951931 -1.91357,-2.126198 0,-1.174267 0.85673,-2.126198 1.91357,-2.126198 1.05684,0 1.91358,0.951931 1.91358,2.126198 z M 9.996133,20.776289 c 0.0473,-0.614236 1.43597,-2.93354 1.58838,-3.53044 0.41769,-1.635964 1.0136,-3.221524 1.55921,-4.819383 0.26663,-0.78085 0.2327,-0.966828 0.85048,-1.275719 0.56784,-0.283921 1.33701,0.312863 1.84271,0.42524 0.83141,0.184758 1.86288,0.07592 2.69318,0.283493 1.29177,0.322943 1.87911,0.06481 3.11843,-0.141747 0.0932,-0.01554 0.19897,0.04226 0.28349,0 0.48668,-0.243342 0.69167,-0.73323 0.99222,-1.133973 0.23524,-0.313655 0.59826,-0.456508 0.85048,-0.708733 0.10209,-0.102087 0.25983,-0.685063 0.2835,-0.708732 0.0668,-0.06682 0.20246,0.04862 0.28349,0 0.17189,-0.103136 0.26487,-0.304964 0.42524,-0.42524 0.20895,-0.15671 0.61854,-0.270614 0.85048,-0.42524 0.0393,-0.02621 -0.0448,-0.126805 0,-0.141746 0.22412,-0.07471 0.54168,0.16705 0.70873,0 0.0668,-0.06682 0,-0.377991 0,-0.283493 0,0.0945 -0.0845,0.325753 0,0.283493 0.1757,-0.08785 0.3105,-0.536624 0.42524,-0.708733 0.10904,-0.163554 0.3162,-0.261686 0.42524,-0.42524 0.0567,-0.08505 -0.0709,-0.354366 0,-0.425239 0.41779,-0.41779 0.83786,-0.605682 1.55921,-0.708733 1.85102,-0.264432 2.15,1.910253 2.40969,1.984452 2.32706,0.664874 1.38418,0.285104 3.82716,0.566986 4.98853,0.575599 -1.25338,-0.06276 3.11842,0.708733 0.32571,0.05748 0.66791,-0.06486 0.99223,0 0.16705,0.03341 0.26865,0.216385 0.42524,0.283493 0.17906,0.07674 0.41114,0.02486 0.56698,0.141746 0.24204,0.181524 0.35306,0.494805 0.56699,0.708733 0.16705,0.16705 0.44015,0.225929 0.56699,0.42524 0.21673,0.340582 0.25957,0.765835 0.42524,1.133973 0.31991,0.710922 0.9713,2.412928 1.55921,3.118424 0.99994,1.199931 2.92049,0.170266 4.11065,0.566986 0.28754,0.09585 0.59454,0.339929 0.85048,0.425239 0.0896,0.02988 0.20486,-0.05242 0.28349,0 0.0879,0.05861 0.067,0.208788 0.14175,0.283493 0.0668,0.06682 0.19384,-0.02988 0.28349,0 0.54945,0.18315 1.07889,0.408532 1.55921,0.708734 0.25656,0.160345 0.44236,0.42355 0.70873,0.566986 0.35545,0.191392 0.7729,0.244703 1.13398,0.425239 0.39868,0.199342 0.73912,0.501904 1.13397,0.708734 0.59927,0.313899 1.24406,0.5354 1.8427,0.850479 1.83184,0.964126 0.0462,0.241006 1.41747,0.850479 0.48273,0.214546 0.92442,0.519099 1.41746,0.708732 1.13975,0.438361 2.38887,0.232439 3.40192,0.992227 0.16037,0.120274 0.25845,0.314044 0.42524,0.425238 0.12432,0.08288 0.30857,0.04841 0.42524,0.141748 0.5627,0.450157 0.73052,2.865432 1.41747,3.827156 0.74775,1.04685 2.31251,2.181288 3.40191,2.834931 0.6607,0.396414 1.56496,0.572732 2.1262,1.133972 0.80697,0.806971 0.82153,2.40869 1.41747,3.401917 0.49416,0.823603 1.20191,1.309688 1.98445,1.700959 0.0845,0.04226 0.20246,-0.04862 0.28349,0 0.5544,0.332637 1.14928,0.925544 1.55921,1.417465 0.4901,0.588113 2.4983,2.652691 2.78047,2.934861 m -13.8367,29.808591 c 0.0945,-0.75598 0.186,-1.51235 0.2835,-2.26795 0.24424,-1.89291 0.3641,-3.82164 0.85048,-5.669859 0.1371,-0.520981 0.31236,-1.032449 0.42524,-1.559211 0.0697,-0.325398 -0.11537,-0.451622 0.14174,-0.708734 0.0569,-0.05693 0.34507,0.02672 0.42524,0 1.00512,-0.335037 -0.97426,0.07405 0.99223,-0.283493 0.64699,-0.117634 1.35043,-0.156689 1.98445,-0.283493 0.1036,-0.02072 0.18899,-0.0945 0.28349,-0.141745 0.189,-0.04725 0.37413,-0.114197 0.56699,-0.141748 0.87112,-0.124444 1.83106,0.172426 2.69318,0 0.50948,-0.101894 1.07358,-0.263359 1.55922,-0.425239 0.12678,-0.04226 0.15671,-0.241231 0.28349,-0.283493 0.0897,-0.02988 0.21667,0.06682 0.28349,0 0.20046,-0.200459 0,-0.566986 0,-0.850479 V 50.556285 M 32.137763,68.13286 c 2.11163,-2.00188 4.03987,-4.18162 6.0951,-6.236851 1.58407,-1.584071 2.71775,-2.720904 5.10288,-3.118424 0.88501,-0.147503 0.27131,-0.06478 0.99222,-0.425241 0.0845,-0.04226 0.21667,0.06682 0.28349,0 0.0455,-0.04552 -0.01,-0.356669 0,-0.425239 0.0406,-0.284514 0.0888,-0.567999 0.14175,-0.850479 0.21901,-1.168045 0.45591,-2.478508 0.2835,-3.68541 -0.12822,-0.897499 -0.0945,0.141748 -0.2835,-0.425239 -0.30278,-0.908343 -0.52597,-2.573755 -0.28349,-3.543665 0.007,-0.02675 0.91051,-1.052256 0.99222,-1.133972 0.10098,-0.100976 0.34288,-0.0182 0.42524,-0.141745 0.0829,-0.12432 0.0589,-0.300922 0.14175,-0.425241 1.35655,-1.356553 -0.25356,0.380346 0.56699,-0.85048 0.0262,-0.03931 0.10833,0.03341 0.14174,0 0.0472,-0.04716 -0.01,-0.538379 0,-0.566986 0.0957,-0.287015 0.42006,-0.444264 0.56699,-0.708731 0.32629,-0.587333 0.77616,-1.535822 0.56699,-2.267945 -0.62183,-2.176388 -1.46546,-4.314616 -1.98446,-6.520341 -0.15304,-0.650436 -0.15245,-1.329227 -0.28349,-1.984452 -0.22923,-1.146172 -0.67274,-2.246638 -0.85048,-3.401917 -0.0359,-0.233498 0.0513,-0.478113 0,-0.708732 -0.50494,-2.272234 -0.12237,1.611188 -0.42524,-1.417465 -0.11569,-1.156957 0.20362,-0.574876 0.28349,-1.133973 0.10511,-0.735725 -0.0738,-1.529568 0,-2.267945 0.10974,-1.097337 0.40242,-2.30479 0.56699,-3.401917 0.25081,-1.672095 0.0679,-0.962787 0.28349,-3.118424 0.0655,-0.655044 0.49872,-1.622275 0.2835,-2.267944 -0.006,-0.0193 -0.84083,-0.01931 -0.85048,0 -0.0423,0.08452 0,-0.0945 0,0 M 4.88461,52.729834 c -0.45255,2.816043 0.06732,6.553076 1.030043,9.166175 0.13196,0.358182 0.85671,2.696301 1.41747,2.976671 0.16904,0.0845 0.389,-0.0636 0.56698,0 0.49748,0.17768 0.91887,0.53423 1.41747,0.70874 0.59498,0.20824 1.22456,0.30161 1.8427,0.42524 0.0927,0.0186 0.21667,-0.0668 0.28349,0 0.0668,0.0668 -0.0423,0.19897 0,0.28349 0.0211,0.0423 0.0945,0 0.14175,0 0.0473,0.0945 0.11612,0.181 0.14175,0.28349 0.0697,0.27883 0.072,0.57166 0.14174,0.85048 0.0769,0.30749 0.33817,0.54572 0.42524,0.85048 0.14279,0.49974 -0.0493,1.04182 0,1.55922 0.10406,1.0926 0.28985,2.17704 0.42524,3.26016 0.0872,0.69723 -0.0993,1.431 0,2.1262 0.0472,0.2835 0.0945,0.56699 0.14175,0.85048 0.0472,0.0473 0.13076,0.0758 0.14175,0.14175 0.11734,0.70405 -0.0369,0.98637 0.14174,1.70096 0.0472,0.14174 0.0945,0.28349 0.14175,0.42524 0.0472,0 0.1268,-0.0448 0.14175,0 0.17281,0.51845 0.14174,0.90401 0.14174,1.41746 0,0.0945 -0.0423,0.19897 0,0.28349 0.0423,0.0845 0.37799,0 0.2835,0 -0.0945,0 -0.35032,-0.0668 -0.2835,0 0.10565,0.10566 0.3118,0.0445 0.42524,0.14175 0.0686,0.0588 0.56902,0.85149 0.85048,0.99223 0.29072,0.145358 4.40633,-0.56699 4.89026,-0.56699 M 4.88461,52.729834 c 0.61423,-0.944977 1.26284,-1.868484 1.8427,-2.834931 0.469386,-1.748008 2.394524,-2.206566 3.581483,-3.024029 0.27991,-0.258378 0.70436,-0.3175 0.99223,-0.566986 0.42995,-0.372623 0.71804,-0.887513 1.13397,-1.275717 0.29714,-0.277329 0.70482,-0.421331 0.99223,-0.708735 0.2874,-0.287403 0.43408,-0.692607 0.70873,-0.992224 0.24936,-0.272029 0.58954,-0.447791 0.85048,-0.708734 0.0747,-0.0747 0.067,-0.208785 0.14174,-0.283493 0.10663,-0.106627 3.60317,0.0924 3.68541,0.141748 0.0317,0.01905 0.53326,0.465788 0.56699,0.566986 0.0598,0.179297 -0.18899,0.566986 0,0.566986 0.0668,0 0.0784,-0.120616 0.14175,-0.141748 0.0897,-0.02988 0.19897,0.04226 0.28349,0 0.2374,-0.118697 0.54577,-2.204286 0.56699,-2.267945 0.0423,-0.12678 0.23386,-0.159411 0.28349,-0.283493 0.0526,-0.131606 -0.0278,-0.286245 0,-0.425238 0.17102,-0.855099 0.0674,0.11493 0.28349,-0.425241 0.23412,-0.58529 0.2417,-1.239636 0.42524,-1.842704 0.24801,-0.814885 0.61648,-1.590675 0.85048,-2.40969 0.0553,-0.193376 0.0731,-1.065353 0.14175,-1.133972 0.29328,-0.29328 -0.0115,0.448167 0.28349,-0.141748 0.47904,-0.958088 0.0516,-0.497528 0.70873,-1.417466 0.28845,-0.403817 0.27888,-0.127897 0.42524,-0.566986 0.0709,-0.212619 -0.14174,-0.141745 0,-0.425238 0.0211,-0.04226 0.0951,0.0078 0.14175,0 0.23764,-0.03961 0.46781,-0.141748 0.70873,-0.141748 1.6427,0 2.38487,0.895858 3.68541,1.700959 0.59317,0.367196 1.25837,0.611137 1.84271,0.992227 0.50682,0.330536 0.94497,0.75598 1.41746,1.133972 0.70874,0.472488 1.40539,0.963618 2.1262,1.417466 0.53886,0.339283 3.65448,2.110732 3.9689,2.267942 3.58082,1.790409 0.46393,-0.244811 1.70096,0.992227 0.0668,0.06682 0.36802,0.04226 0.2835,0 l -1.98446,-0.992227 c 0.70874,0 3.12986,0.865444 3.82716,0.992227 0.29401,0.05346 0.55877,0.218667 0.85048,0.283493 0.93361,0.20747 1.95328,0.252323 2.69319,0.992225 0.0334,0.03341 -0.0334,0.108339 0,0.141747 0.0747,0.07471 0.2201,0.05723 0.28349,0.141746 0.14533,0.193778 0.26597,0.691218 0.42524,0.850479 0.1896,0.189606 0.58706,-0.222657 0.70873,-0.283493 0.04,-0.02 0.4144,0.03252 0.42524,0 0.10974,-0.329221 -2.08236,-0.51496 -1.8427,-0.850479 0.88566,-1.239932 3.14154,-1.297345 4.67763,-2.40969 0.76538,-0.554239 1.46661,-1.200121 2.26794,-1.700959 5.52662,-3.454135 0.24077,0.118237 3.26017,-1.559211 0.11683,-0.0649 0.15942,-0.233862 0.2835,-0.283493 0.13161,-0.05264 0.28542,0.02331 0.42524,0 0.35942,-0.0599 1.18865,-0.338177 1.41746,-0.566986 0.16705,-0.16705 0.21394,-0.461336 0.42524,-0.566986 0.87977,-0.439886 1.75805,-0.924497 2.55144,-1.559214 0.27914,-0.223311 1.29689,-1.034558 1.41747,-1.275717 0.45474,-0.909492 0.952,-1.863786 1.27572,-2.834931 0.19477,-0.584321 0.34958,-1.30398 0.70873,-1.842706 0.0362,-0.05426 0.817,-0.01674 0.85048,0 0.26979,0.134899 0.0285,0.964077 0.14174,1.133972 0.0741,0.111196 0.22373,0.163962 0.2835,0.283494 0.20398,0.40796 0.12586,0.960457 0.28349,1.275719 0.0598,0.119531 0.189,0.188995 0.28349,0.283493 0.0945,0.188995 0.21128,0.368403 0.2835,0.566986 0.11755,0.323266 0.12162,0.688716 0.28349,0.992225 0.22235,0.416901 0.61606,0.723738 0.85048,1.133972 0.14826,0.259456 0.16213,0.577408 0.28349,0.85048 0.32836,0.738811 1.14497,1.994865 0.99223,2.834931 -0.19274,1.060029 -0.26128,0.576773 -0.56699,1.417465 -0.23046,0.633767 -0.36102,1.366539 -0.56699,1.984452 -0.28921,0.86765 -0.85047,1.496046 -0.85047,2.40969 0,1.129202 0.75175,2.63589 1.13397,3.543665 0.265,0.629383 0.31563,0.260826 0.70873,0.850479 0.0829,0.12432 0.0589,0.300919 0.14175,0.425238 0.0262,0.03931 0.10833,-0.03341 0.14174,0 0.16705,0.16705 0.2672,0.391388 0.42524,0.566987 0.13192,0.727191 0.87341,0.731663 1.27572,1.133972 0.12091,0.120907 0.35395,0.673087 0.42524,0.708734 0.0845,0.04226 0.19083,-0.01855 0.28349,0 0.51001,0.102 1.76374,0.806056 1.84271,0.850479 0.82202,0.462386 2.00503,1.345288 2.83493,1.700959 0.35812,0.15348 0.76916,0.146685 1.13397,0.283493 9.67657,3.62871 -5.18792,-1.502513 4.67764,1.559211 0.68733,0.21331 5.525803,-4.109731 6.217783,-3.912021 0.73408,0.209738 1.39715,0.02024 2.1262,0.141748 0.82927,0.13821 1.56246,0.425238 2.40969,0.425238 0.35883,0 0.90366,0.327774 1.27572,0.141748 0.0423,-0.02114 -0.0334,-0.108339 0,-0.141748 -0.0513,-0.76682 0.39794,-0.15671 0.56698,-0.283493 0.55694,-0.417705 0.57575,-0.717486 0.99223,-1.133972 M 4.88461,52.729834 c 2.32514,-0.216461 4.166913,2.345762 6.416413,1.653609 0.1563,-0.0481 1.28887,-0.553834 1.55921,-0.283493 0.066,0.066 0.0384,2.808486 0.14175,3.118424 0.0194,0.05821 0.68567,0.406024 0.70873,0.425238 0.18149,0.151241 0.25819,0.399936 0.42524,0.566986 0.37507,0.375068 1.12005,0.630897 1.55921,0.85048 0.0845,0.04226 0.20145,-0.04688 0.28349,0 0.44374,0.253563 0.88769,0.517877 1.27572,0.850479 0.20294,0.173942 0.34034,0.425328 0.56699,0.566986 0.1652,0.103251 0.39993,0.04152 0.56698,0.141745 0.0906,0.05436 0.0472,0.236247 0.14175,0.283494 0.21549,0.107746 0.48017,0.06556 0.70873,0.141747 0.34216,0.114052 0.77786,0.414364 1.13398,0.566987 0.31716,0.135929 0.79997,0.358439 1.13397,0.425238 0.27799,0.0556 0.65002,-0.200459 0.85048,0 0.067,0.06702 0.0902,1.836276 0.28349,2.126196 0.28542,0.42813 1.93169,0.97569 1.98445,1.13398 0.0299,0.0897 -0.0423,0.19897 0,0.28349 0.0432,0.0864 0.87189,-0.0401 0.99223,0 0.62165,0.20721 1.67887,0.70873 2.26794,0.70873 0.0912,0 0.54092,-0.0521 0.56699,0 0.0423,0.0845 -0.0299,0.19384 0,0.28349 0.0308,0.0923 1.01256,0.95185 1.13397,1.13398 0.25546,0.38319 0.45327,0.89252 0.70873,1.27572 0.34643,0.51963 0.80642,1.01328 1.13398,1.55921 0.16307,0.27178 0.24942,0.58675 0.42524,0.85048 0.11119,0.16679 0.32788,0.25 0.42524,0.42524 0.34111,0.61401 0.48661,1.31809 0.70873,1.98445 0.3558,1.0674 0.44571,2.20807 0.70873,3.26017 0.0864,0.3456 0.0302,0.79945 0.14175,1.13397 0.17717,0.53153 0.0735,-0.11025 0.28349,0.14175 0.21812,0.26174 0.36256,0.5779 0.56699,0.85047 0.22141,0.29523 0.41623,0.62549 0.70873,0.85048 1.48711,1.14394 4.26582,0.77793 5.95335,0.56699 0.61592,-0.077 1.79956,-0.73031 2.40969,-0.42524 0.24564,0.12282 0.0441,1.461568 0.14175,1.559208 0.0334,0.0334 0.0945,0 0.14175,0 0.0945,0.0473 0.22489,0.0538 0.28349,0.14175 0.14114,0.21171 0.15726,0.48782 0.28349,0.70873 0.42816,0.74926 1.13258,0.89726 1.84271,1.13397 0.68274,0.22759 1.31275,0.59214 1.98445,0.85048 0.88272,0.33951 1.00048,0.29863 1.98445,0.56699 0.50087,0.1366 1.04841,0.73726 1.55921,0.56699 0.24932,-0.0831 0.0841,-0.25236 0.14175,-0.42524 0.40506,-1.21519 0.42524,-2.64559 0.42524,-3.96891 0,-0.357068 -0.17211,-1.214988 0,-1.559208 0.0211,-0.0423 0.0995,0.0211 0.14175,0 0.45166,-0.22583 -0.0538,-0.0391 0.14174,-0.28349 0.68375,-0.85468 1.76589,-1.76985 2.83494,-2.1262 0.52794,-0.17598 1.35022,0.24624 1.8427,0 0.0423,-0.0211 -0.0334,-0.10834 0,-0.14175 0.04,-0.04 0.55431,0.003 0.56699,0 0.70374,-0.14074 1.29184,-0.67732 1.98445,-0.85048 0.21736,-0.0543 0.49659,0.0707 0.70873,0 0.56699,-0.18899 0.0473,-0.0472 0.42524,-0.42523 0.0668,-0.0668 0.21667,0.0668 0.28349,0 0.0944,-0.0944 -0.0944,-0.18907 0,-0.2835 0.12046,-0.12046 0.33074,-0.14174 0.42524,-0.28349 0.40315,-0.60472 0.29693,-2.29481 0.42524,-2.55144 0.0897,-0.1793 0.35486,-0.23754 0.42524,-0.42524 0.083,-0.2212 -0.0157,-0.47301 0,-0.70873 0.0316,-0.47379 0.10533,-0.94402 0.14175,-1.41747 0.0214,-0.27774 0,-0.57061 0,-0.85048 0,-0.14174 0.14175,-0.42523 0,-0.42523 -0.0472,0 -0.0472,0.14174 0,0.14174 0.69084,0 -0.60711,-0.4367 0.42524,-0.14174 0.83193,0.23769 1.35648,0.81325 2.1262,1.13397 0.26529,0.11054 0.56924,0.0825 0.85048,0.14174 0.61685,0.12987 1.23567,0.25527 1.8427,0.42524 2.30128,0.64436 1.07629,0.5271 3.40192,0.99223 1.15718,0.23144 4.10887,-0.14352 4.81938,0.56699 0.0747,0.0747 -0.189,0.0945 -0.28349,0.14174 -0.0354,0.0177 0,0.50926 0,0.56699 0,0.81189 -0.20377,1.96761 0.14174,2.69318 1.2178,2.55737 2.80674,5.26606 4.67764,7.370818 0.11318,0.12733 0.32302,0.14721 0.42524,0.2835 0.085,0.11339 -0.10023,0.325 0,0.42523 0.0334,0.0334 0.11554,-0.0393 0.14174,0 0.0829,0.12432 0.0676,0.29552 0.14175,0.42525 0.14611,0.25568 2.09122,2.40969 1.70096,2.40969 M 98.66871,51.038407 c 0,1.174267 -0.85674,2.126198 -1.913583,2.126198 -1.056841,0 -1.913581,-0.951931 -1.913581,-2.126198 0,-1.174267 0.85674,-2.126198 1.913581,-2.126198 1.056843,0 1.913583,0.951931 1.913583,2.126198 z"
       sodipodi:nodetypes="csssscssssscssssssssssssssscccssscsssssscccssssssssssssssssssssssssssssssssssssssssccsssssssssssscssssscssssssssssssssscsssssssssssssssssccsssscsscssssssccssssssssssscsscssssscssssscsccsssscsscsssssccsccsssssssccccsssssssssssssssssssssccssscscsscsssssssscsssscsssssssssscsssssssssssscssccscssssscsccsssssscssssssssssssssssssssssssssssscssssssssscsssscssssssssssssssssssssssssssscsssss"
       inkscape:export-xdpi="99"
       inkscape:export-ydpi="99" />
  </g>
  <g
     inkscape:groupmode="layer"
     id="layer2"
     inkscape:label="NNs">
    <path
       id="path4423"
       style="fill:none;stroke:url(#linearGradient983);stroke-width:2.5;stroke-linecap:round;stroke-linejoin:round;stroke-miterlimit:4;stroke-dasharray:none;stroke-opacity:1;paint-order:stroke fill markers"
       d="m 77.300443,39.883479 c -0.34427,2.120524 0.16264,3.088259 2.04939,4.460446 1.4413,1.048218 7.624873,-3.438623 9.175993,-2.592554 0.17639,0.09621 0.30776,0.261972 0.48221,0.361656 0.16484,0.09419 0.76249,0.03918 0.84387,0.120552 0.0284,0.02842 -0.0241,0.08841 0,0.120555 0.44719,0.59626 0.80814,1.172482 1.20552,1.808287 0.36131,0.578088 0.0947,-0.0259 0.48221,0.361659 0.0809,0.08088 0.28597,0.520761 0.36166,0.602763 0.38546,0.417581 0.8313,0.777843 1.20553,1.205526 1.09103,1.246897 2.19572,2.492378 3.13436,3.857681 0.278951,0.405741 0.445471,0.909312 0.723321,1.326078 M 21.228233,42.535637 c 0,1.174267 -0.85674,2.126198 -1.91358,2.126198 -1.05684,0 -1.91358,-0.951931 -1.91358,-2.126198 0,-1.174267 0.85674,-2.126198 1.91358,-2.126198 1.05684,0 1.91358,0.951931 1.91358,2.126198 z m 55.21307,9.282547 c 0,1.174267 -0.85674,2.126198 -1.91358,2.126198 -1.05684,0 -1.91357,-0.951931 -1.91357,-2.126198 0,-1.174267 0.85673,-2.126198 1.91357,-2.126198 1.05684,0 1.91358,0.951931 1.91358,2.126198 z M 65.350473,69.90107 c 0,1.17427 -0.85673,2.1262 -1.91357,2.1262 -1.05684,0 -1.91358,-0.95193 -1.91358,-2.1262 0,-1.17426 0.85674,-2.12619 1.91358,-2.12619 1.05684,0 1.91357,0.95193 1.91357,2.12619 z M 4.88461,52.729833 C 4.72744,51.624375 4.3619,50.528857 4.41309,49.413456 c 3.74667,-4.148225 1.614428,-3.031613 2.243543,-5.069531 0.51091,-1.839278 0.51542,-1.146405 0.60276,-2.893264 0.003,-0.06847 -0.14806,-2.476595 -0.12055,-2.531604 0.21169,-0.423387 0.93473,-0.392542 1.20553,-0.843868 0.19114,-0.318582 0.0484,-0.434768 0.12055,-0.723315 0.18207,-0.72829 0.37396,-1.45496 0.60276,-2.169946 0.13191,-0.412208 0.34535,-0.794938 0.48221,-1.205526 0.35832,-1.074971 0.52137,-2.179918 0.84387,-3.25492 0.2954,-0.984668 0.21931,-0.209087 0.36166,-1.205527 0.11818,-0.82728 -0.10368,-1.702154 0,-2.531602 0.12573,-1.005841 0.12055,-1.989962 0.12055,-3.013815 0,-0.244066 0.0127,-2.036698 0,-2.049394 -0.0921,-0.09213 -0.36166,-0.05456 -0.36166,0.120553 l -0.51818,-1.265409 m 9.73881,59.830262 c 0,1.174258 -0.85674,2.126198 -1.91358,2.126198 -1.05684,0 -1.91358,-0.95194 -1.91358,-2.126198 0,-1.17427 0.85674,-2.1262 1.91358,-2.1262 1.05684,0 1.91358,0.95193 1.91358,2.1262 z M 5.94771,51.312369 c 0,1.174267 -0.85674,2.126199 -1.91358,2.126199 -1.05684,0 -1.91358,-0.951932 -1.91358,-2.126199 0,-1.174267 0.85674,-2.126198 1.91358,-2.126198 1.05684,0 1.91358,0.951931 1.91358,2.126198 z m 42.845273,-9.969607 c 0,1.174267 -0.85674,2.126198 -1.91358,2.126198 -1.05684,0 -1.91358,-0.951931 -1.91358,-2.126198 0,-1.174267 0.85674,-2.126198 1.91358,-2.126198 1.05684,0 1.91358,0.951931 1.91358,2.126198 z M 33.484353,69.12508 c 0,1.17427 -0.85674,2.1262 -1.91358,2.1262 -1.05684,0 -1.91358,-0.95193 -1.91358,-2.1262 0,-1.17427 0.85674,-2.1262 1.91358,-2.1262 1.05684,0 1.91358,0.95193 1.91358,2.1262 z m 13.46592,-53.296697 c 0,1.174267 -0.85673,2.126198 -1.91357,2.126198 -1.05684,0 -1.91358,-0.951931 -1.91358,-2.126198 0,-1.174267 0.85674,-2.126198 1.91358,-2.126198 1.05684,0 1.91357,0.951931 1.91357,2.126198 z m -34.86964,4.819383 c 0,1.174267 -0.85674,2.126198 -1.91358,2.126198 -1.05684,0 -1.91358,-0.951931 -1.91358,-2.126198 0,-1.174267 0.85674,-2.126198 1.91358,-2.126198 1.05684,0 1.91358,0.951931 1.91358,2.126198 z m 73.14121,63.785942 c 0,1.17427 -0.85674,2.1262 -1.91358,2.1262 -1.05684,0 -1.91357,-0.95193 -1.91357,-2.1262 0,-1.17427 0.85673,-2.1262 1.91357,-2.1262 1.05684,0 1.91358,0.95193 1.91358,2.1262 z m -7.29995,-46.067627 c 0,1.174267 -0.85674,2.126198 -1.91358,2.126198 -1.05684,0 -1.91357,-0.951931 -1.91357,-2.126198 0,-1.174267 0.85673,-2.126198 1.91357,-2.126198 1.05684,0 1.91358,0.951931 1.91358,2.126198 z M 9.996133,20.776289 c 0.0473,-0.614236 1.43597,-2.93354 1.58838,-3.53044 0.41769,-1.635964 1.0136,-3.221524 1.55921,-4.819383 0.26663,-0.78085 0.2327,-0.966828 0.85048,-1.275719 0.56784,-0.283921 1.33701,0.312863 1.84271,0.42524 0.83141,0.184758 1.86288,0.07592 2.69318,0.283493 1.29177,0.322943 1.87911,0.06481 3.11843,-0.141747 0.0932,-0.01554 0.19897,0.04226 0.28349,0 0.48668,-0.243342 0.69167,-0.73323 0.99222,-1.133973 0.23524,-0.313655 0.59826,-0.456508 0.85048,-0.708733 0.10209,-0.102087 0.25983,-0.685063 0.2835,-0.708732 0.0668,-0.06682 0.20246,0.04862 0.28349,0 0.17189,-0.103136 0.26487,-0.304964 0.42524,-0.42524 0.20895,-0.15671 0.61854,-0.270614 0.85048,-0.42524 0.0393,-0.02621 -0.0448,-0.126805 0,-0.141746 0.22412,-0.07471 0.54168,0.16705 0.70873,0 0.0668,-0.06682 0,-0.377991 0,-0.283493 0,0.0945 -0.0845,0.325753 0,0.283493 0.1757,-0.08785 0.3105,-0.536624 0.42524,-0.708733 0.10904,-0.163554 0.3162,-0.261686 0.42524,-0.42524 0.0567,-0.08505 -0.0709,-0.354366 0,-0.425239 0.41779,-0.41779 0.83786,-0.605682 1.55921,-0.708733 1.85102,-0.264432 2.15,1.910253 2.40969,1.984452 2.32706,0.664874 1.38418,0.285104 3.82716,0.566986 4.98853,0.575599 -1.25338,-0.06276 3.11842,0.708733 0.32571,0.05748 0.66791,-0.06486 0.99223,0 0.16705,0.03341 0.26865,0.216385 0.42524,0.283493 0.17906,0.07674 0.41114,0.02486 0.56698,0.141746 0.24204,0.181524 0.35306,0.494805 0.56699,0.708733 0.16705,0.16705 0.44015,0.225929 0.56699,0.42524 0.21673,0.340582 0.25957,0.765835 0.42524,1.133973 0.31991,0.710922 0.9713,2.412928 1.55921,3.118424 0.99994,1.199931 2.92049,0.170266 4.11065,0.566986 0.28754,0.09585 0.59454,0.339929 0.85048,0.425239 0.0896,0.02988 0.20486,-0.05242 0.28349,0 0.0879,0.05861 0.067,0.208788 0.14175,0.283493 0.0668,0.06682 0.19384,-0.02988 0.28349,0 0.54945,0.18315 1.07889,0.408532 1.55921,0.708734 0.25656,0.160345 0.44236,0.42355 0.70873,0.566986 0.35545,0.191392 0.7729,0.244703 1.13398,0.425239 0.39868,0.199342 0.73912,0.501904 1.13397,0.708734 0.59927,0.313899 1.24406,0.5354 1.8427,0.850479 1.83184,0.964126 0.0462,0.241006 1.41747,0.850479 0.48273,0.214546 0.92442,0.519099 1.41746,0.708732 1.13975,0.438361 2.38887,0.232439 3.40192,0.992227 0.16037,0.120274 0.25845,0.314044 0.42524,0.425238 0.12432,0.08288 0.30857,0.04841 0.42524,0.141748 0.5627,0.450157 0.73052,2.865432 1.41747,3.827156 0.74775,1.04685 2.31251,2.181288 3.40191,2.834931 0.6607,0.396414 1.56496,0.572732 2.1262,1.133972 0.80697,0.806971 0.82153,2.40869 1.41747,3.401917 0.49416,0.823603 1.20191,1.309688 1.98445,1.700959 0.0845,0.04226 0.20246,-0.04862 0.28349,0 0.5544,0.332637 1.14928,0.925544 1.55921,1.417465 0.4901,0.588113 2.4983,2.652691 2.78047,2.934861 m -13.8367,29.808591 c 0.0945,-0.75598 0.186,-1.51235 0.2835,-2.26795 0.24424,-1.89291 0.3641,-3.82164 0.85048,-5.669859 0.1371,-0.520981 0.31236,-1.032449 0.42524,-1.559211 0.0697,-0.325398 -0.11537,-0.451622 0.14174,-0.708734 0.0569,-0.05693 0.34507,0.02672 0.42524,0 1.00512,-0.335037 -0.97426,0.07405 0.99223,-0.283493 0.64699,-0.117634 1.35043,-0.156689 1.98445,-0.283493 0.1036,-0.02072 0.18899,-0.0945 0.28349,-0.141745 0.189,-0.04725 0.37413,-0.114197 0.56699,-0.141748 0.87112,-0.124444 1.83106,0.172426 2.69318,0 0.50948,-0.101894 1.07358,-0.263359 1.55922,-0.425239 0.12678,-0.04226 0.15671,-0.241231 0.28349,-0.283493 0.0897,-0.02988 0.21667,0.06682 0.28349,0 0.20046,-0.200459 0,-0.566986 0,-0.850479 V 50.556285 M 32.137763,68.13286 c 2.11163,-2.00188 4.03987,-4.18162 6.0951,-6.236851 1.58407,-1.584071 2.71775,-2.720904 5.10288,-3.118424 0.88501,-0.147503 0.27131,-0.06478 0.99222,-0.425241 0.0845,-0.04226 0.21667,0.06682 0.28349,0 0.0455,-0.04552 -0.01,-0.356669 0,-0.425239 0.0406,-0.284514 0.0888,-0.567999 0.14175,-0.850479 0.21901,-1.168045 0.45591,-2.478508 0.2835,-3.68541 -0.12822,-0.897499 -0.0945,0.141748 -0.2835,-0.425239 -0.30278,-0.908343 -0.52597,-2.573755 -0.28349,-3.543665 0.007,-0.02675 0.91051,-1.052256 0.99222,-1.133972 0.10098,-0.100976 0.34288,-0.0182 0.42524,-0.141745 0.0829,-0.12432 0.0589,-0.300922 0.14175,-0.425241 1.35655,-1.356553 -0.25356,0.380346 0.56699,-0.85048 0.0262,-0.03931 0.10833,0.03341 0.14174,0 0.0472,-0.04716 -0.01,-0.538379 0,-0.566986 0.0957,-0.287015 0.42006,-0.444264 0.56699,-0.708731 0.32629,-0.587333 0.77616,-1.535822 0.56699,-2.267945 -0.62183,-2.176388 -1.46546,-4.314616 -1.98446,-6.520341 -0.15304,-0.650436 -0.15245,-1.329227 -0.28349,-1.984452 -0.22923,-1.146172 -0.67274,-2.246638 -0.85048,-3.401917 -0.0359,-0.233498 0.0513,-0.478113 0,-0.708732 -0.50494,-2.272234 -0.12237,1.611188 -0.42524,-1.417465 -0.11569,-1.156957 0.20362,-0.574876 0.28349,-1.133973 0.10511,-0.735725 -0.0738,-1.529568 0,-2.267945 0.10974,-1.097337 0.40242,-2.30479 0.56699,-3.401917 0.25081,-1.672095 0.0679,-0.962787 0.28349,-3.118424 0.0655,-0.655044 0.49872,-1.622275 0.2835,-2.267944 -0.006,-0.0193 -0.84083,-0.01931 -0.85048,0 -0.0423,0.08452 0,-0.0945 0,0 M 4.88461,52.729834 c -0.45255,2.816043 0.06732,6.553076 1.030043,9.166175 0.13196,0.358182 0.85671,2.696301 1.41747,2.976671 0.16904,0.0845 0.389,-0.0636 0.56698,0 0.49748,0.17768 0.91887,0.53423 1.41747,0.70874 0.59498,0.20824 1.22456,0.30161 1.8427,0.42524 0.0927,0.0186 0.21667,-0.0668 0.28349,0 0.0668,0.0668 -0.0423,0.19897 0,0.28349 0.0211,0.0423 0.0945,0 0.14175,0 0.0473,0.0945 0.11612,0.181 0.14175,0.28349 0.0697,0.27883 0.072,0.57166 0.14174,0.85048 0.0769,0.30749 0.33817,0.54572 0.42524,0.85048 0.14279,0.49974 -0.0493,1.04182 0,1.55922 0.10406,1.0926 0.28985,2.17704 0.42524,3.26016 0.0872,0.69723 -0.0993,1.431 0,2.1262 0.0472,0.2835 0.0945,0.56699 0.14175,0.85048 0.0472,0.0473 0.13076,0.0758 0.14175,0.14175 0.11734,0.70405 -0.0369,0.98637 0.14174,1.70096 0.0472,0.14174 0.0945,0.28349 0.14175,0.42524 0.0472,0 0.1268,-0.0448 0.14175,0 0.17281,0.51845 0.14174,0.90401 0.14174,1.41746 0,0.0945 -0.0423,0.19897 0,0.28349 0.0423,0.0845 0.37799,0 0.2835,0 -0.0945,0 -0.35032,-0.0668 -0.2835,0 0.10565,0.10566 0.3118,0.0445 0.42524,0.14175 0.0686,0.0588 0.56902,0.85149 0.85048,0.99223 0.29072,0.145358 4.40633,-0.56699 4.89026,-0.56699 M 4.88461,52.729834 c 0.61423,-0.944977 1.26284,-1.868484 1.8427,-2.834931 0.469386,-1.748008 2.394524,-2.206566 3.581483,-3.024029 0.27991,-0.258378 0.70436,-0.3175 0.99223,-0.566986 0.42995,-0.372623 0.71804,-0.887513 1.13397,-1.275717 0.29714,-0.277329 0.70482,-0.421331 0.99223,-0.708735 0.2874,-0.287403 0.43408,-0.692607 0.70873,-0.992224 0.24936,-0.272029 0.58954,-0.447791 0.85048,-0.708734 0.0747,-0.0747 0.067,-0.208785 0.14174,-0.283493 0.10663,-0.106627 3.60317,0.0924 3.68541,0.141748 0.0317,0.01905 0.53326,0.465788 0.56699,0.566986 0.0598,0.179297 -0.18899,0.566986 0,0.566986 0.0668,0 0.0784,-0.120616 0.14175,-0.141748 0.0897,-0.02988 0.19897,0.04226 0.28349,0 0.2374,-0.118697 0.54577,-2.204286 0.56699,-2.267945 0.0423,-0.12678 0.23386,-0.159411 0.28349,-0.283493 0.0526,-0.131606 -0.0278,-0.286245 0,-0.425238 0.17102,-0.855099 0.0674,0.11493 0.28349,-0.425241 0.23412,-0.58529 0.2417,-1.239636 0.42524,-1.842704 0.24801,-0.814885 0.61648,-1.590675 0.85048,-2.40969 0.0553,-0.193376 0.0731,-1.065353 0.14175,-1.133972 0.29328,-0.29328 -0.0115,0.448167 0.28349,-0.141748 0.47904,-0.958088 0.0516,-0.497528 0.70873,-1.417466 0.28845,-0.403817 0.27888,-0.127897 0.42524,-0.566986 0.0709,-0.212619 -0.14174,-0.141745 0,-0.425238 0.0211,-0.04226 0.0951,0.0078 0.14175,0 0.23764,-0.03961 0.46781,-0.141748 0.70873,-0.141748 1.6427,0 2.38487,0.895858 3.68541,1.700959 0.59317,0.367196 1.25837,0.611137 1.84271,0.992227 0.50682,0.330536 0.94497,0.75598 1.41746,1.133972 0.70874,0.472488 1.40539,0.963618 2.1262,1.417466 0.53886,0.339283 3.65448,2.110732 3.9689,2.267942 3.58082,1.790409 0.46393,-0.244811 1.70096,0.992227 0.0668,0.06682 0.36802,0.04226 0.2835,0 l -1.98446,-0.992227 c 0.70874,0 3.12986,0.865444 3.82716,0.992227 0.29401,0.05346 0.55877,0.218667 0.85048,0.283493 0.93361,0.20747 1.95328,0.252323 2.69319,0.992225 0.0334,0.03341 -0.0334,0.108339 0,0.141747 0.0747,0.07471 0.2201,0.05723 0.28349,0.141746 0.14533,0.193778 0.26597,0.691218 0.42524,0.850479 0.1896,0.189606 0.58706,-0.222657 0.70873,-0.283493 0.04,-0.02 0.4144,0.03252 0.42524,0 0.10974,-0.329221 -2.08236,-0.51496 -1.8427,-0.850479 0.88566,-1.239932 3.14154,-1.297345 4.67763,-2.40969 0.76538,-0.554239 1.46661,-1.200121 2.26794,-1.700959 5.52662,-3.454135 0.24077,0.118237 3.26017,-1.559211 0.11683,-0.0649 0.15942,-0.233862 0.2835,-0.283493 0.13161,-0.05264 0.28542,0.02331 0.42524,0 0.35942,-0.0599 1.18865,-0.338177 1.41746,-0.566986 0.16705,-0.16705 0.21394,-0.461336 0.42524,-0.566986 0.87977,-0.439886 1.75805,-0.924497 2.55144,-1.559214 0.27914,-0.223311 1.29689,-1.034558 1.41747,-1.275717 0.45474,-0.909492 0.952,-1.863786 1.27572,-2.834931 0.19477,-0.584321 0.34958,-1.30398 0.70873,-1.842706 0.0362,-0.05426 0.817,-0.01674 0.85048,0 0.26979,0.134899 0.0285,0.964077 0.14174,1.133972 0.0741,0.111196 0.22373,0.163962 0.2835,0.283494 0.20398,0.40796 0.12586,0.960457 0.28349,1.275719 0.0598,0.119531 0.189,0.188995 0.28349,0.283493 0.0945,0.188995 0.21128,0.368403 0.2835,0.566986 0.11755,0.323266 0.12162,0.688716 0.28349,0.992225 0.22235,0.416901 0.61606,0.723738 0.85048,1.133972 0.14826,0.259456 0.16213,0.577408 0.28349,0.85048 0.32836,0.738811 1.14497,1.994865 0.99223,2.834931 -0.19274,1.060029 -0.26128,0.576773 -0.56699,1.417465 -0.23046,0.633767 -0.36102,1.366539 -0.56699,1.984452 -0.28921,0.86765 -0.85047,1.496046 -0.85047,2.40969 0,1.129202 0.75175,2.63589 1.13397,3.543665 0.265,0.629383 0.31563,0.260826 0.70873,0.850479 0.0829,0.12432 0.0589,0.300919 0.14175,0.425238 0.0262,0.03931 0.10833,-0.03341 0.14174,0 0.16705,0.16705 0.2672,0.391388 0.42524,0.566987 0.13192,0.727191 0.87341,0.731663 1.27572,1.133972 0.12091,0.120907 0.35395,0.673087 0.42524,0.708734 0.0845,0.04226 0.19083,-0.01855 0.28349,0 0.51001,0.102 1.76374,0.806056 1.84271,0.850479 0.82202,0.462386 2.00503,1.345288 2.83493,1.700959 0.35812,0.15348 0.76916,0.146685 1.13397,0.283493 9.67657,3.62871 -5.18792,-1.502513 4.67764,1.559211 0.68733,0.21331 5.525803,-4.109731 6.217783,-3.912021 0.73408,0.209738 1.39715,0.02024 2.1262,0.141748 0.82927,0.13821 1.56246,0.425238 2.40969,0.425238 0.35883,0 0.90366,0.327774 1.27572,0.141748 0.0423,-0.02114 -0.0334,-0.108339 0,-0.141748 -0.0513,-0.76682 0.39794,-0.15671 0.56698,-0.283493 0.55694,-0.417705 0.57575,-0.717486 0.99223,-1.133972 M 4.88461,52.729834 c 2.32514,-0.216461 4.166913,2.345762 6.416413,1.653609 0.1563,-0.0481 1.28887,-0.553834 1.55921,-0.283493 0.066,0.066 0.0384,2.808486 0.14175,3.118424 0.0194,0.05821 0.68567,0.406024 0.70873,0.425238 0.18149,0.151241 0.25819,0.399936 0.42524,0.566986 0.37507,0.375068 1.12005,0.630897 1.55921,0.85048 0.0845,0.04226 0.20145,-0.04688 0.28349,0 0.44374,0.253563 0.88769,0.517877 1.27572,0.850479 0.20294,0.173942 0.34034,0.425328 0.56699,0.566986 0.1652,0.103251 0.39993,0.04152 0.56698,0.141745 0.0906,0.05436 0.0472,0.236247 0.14175,0.283494 0.21549,0.107746 0.48017,0.06556 0.70873,0.141747 0.34216,0.114052 0.77786,0.414364 1.13398,0.566987 0.31716,0.135929 0.79997,0.358439 1.13397,0.425238 0.27799,0.0556 0.65002,-0.200459 0.85048,0 0.067,0.06702 0.0902,1.836276 0.28349,2.126196 0.28542,0.42813 1.93169,0.97569 1.98445,1.13398 0.0299,0.0897 -0.0423,0.19897 0,0.28349 0.0432,0.0864 0.87189,-0.0401 0.99223,0 0.62165,0.20721 1.67887,0.70873 2.26794,0.70873 0.0912,0 0.54092,-0.0521 0.56699,0 0.0423,0.0845 -0.0299,0.19384 0,0.28349 0.0308,0.0923 1.01256,0.95185 1.13397,1.13398 0.25546,0.38319 0.45327,0.89252 0.70873,1.27572 0.34643,0.51963 0.80642,1.01328 1.13398,1.55921 0.16307,0.27178 0.24942,0.58675 0.42524,0.85048 0.11119,0.16679 0.32788,0.25 0.42524,0.42524 0.34111,0.61401 0.48661,1.31809 0.70873,1.98445 0.3558,1.0674 0.44571,2.20807 0.70873,3.26017 0.0864,0.3456 0.0302,0.79945 0.14175,1.13397 0.17717,0.53153 0.0735,-0.11025 0.28349,0.14175 0.21812,0.26174 0.36256,0.5779 0.56699,0.85047 0.22141,0.29523 0.41623,0.62549 0.70873,0.85048 1.48711,1.14394 4.26582,0.77793 5.95335,0.56699 0.61592,-0.077 1.79956,-0.73031 2.40969,-0.42524 0.24564,0.12282 0.0441,1.461568 0.14175,1.559208 0.0334,0.0334 0.0945,0 0.14175,0 0.0945,0.0473 0.22489,0.0538 0.28349,0.14175 0.14114,0.21171 0.15726,0.48782 0.28349,0.70873 0.42816,0.74926 1.13258,0.89726 1.84271,1.13397 0.68274,0.22759 1.31275,0.59214 1.98445,0.85048 0.88272,0.33951 1.00048,0.29863 1.98445,0.56699 0.50087,0.1366 1.04841,0.73726 1.55921,0.56699 0.24932,-0.0831 0.0841,-0.25236 0.14175,-0.42524 0.40506,-1.21519 0.42524,-2.64559 0.42524,-3.96891 0,-0.357068 -0.17211,-1.214988 0,-1.559208 0.0211,-0.0423 0.0995,0.0211 0.14175,0 0.45166,-0.22583 -0.0538,-0.0391 0.14174,-0.28349 0.68375,-0.85468 1.76589,-1.76985 2.83494,-2.1262 0.52794,-0.17598 1.35022,0.24624 1.8427,0 0.0423,-0.0211 -0.0334,-0.10834 0,-0.14175 0.04,-0.04 0.55431,0.003 0.56699,0 0.70374,-0.14074 1.29184,-0.67732 1.98445,-0.85048 0.21736,-0.0543 0.49659,0.0707 0.70873,0 0.56699,-0.18899 0.0473,-0.0472 0.42524,-0.42523 0.0668,-0.0668 0.21667,0.0668 0.28349,0 0.0944,-0.0944 -0.0944,-0.18907 0,-0.2835 0.12046,-0.12046 0.33074,-0.14174 0.42524,-0.28349 0.40315,-0.60472 0.29693,-2.29481 0.42524,-2.55144 0.0897,-0.1793 0.35486,-0.23754 0.42524,-0.42524 0.083,-0.2212 -0.0157,-0.47301 0,-0.70873 0.0316,-0.47379 0.10533,-0.94402 0.14175,-1.41747 0.0214,-0.27774 0,-0.57061 0,-0.85048 0,-0.14174 0.14175,-0.42523 0,-0.42523 -0.0472,0 -0.0472,0.14174 0,0.14174 0.69084,0 -0.60711,-0.4367 0.42524,-0.14174 0.83193,0.23769 1.35648,0.81325 2.1262,1.13397 0.26529,0.11054 0.56924,0.0825 0.85048,0.14174 0.61685,0.12987 1.23567,0.25527 1.8427,0.42524 2.30128,0.64436 1.07629,0.5271 3.40192,0.99223 1.15718,0.23144 4.10887,-0.14352 4.81938,0.56699 0.0747,0.0747 -0.189,0.0945 -0.28349,0.14174 -0.0354,0.0177 0,0.50926 0,0.56699 0,0.81189 -0.20377,1.96761 0.14174,2.69318 1.2178,2.55737 2.80674,5.26606 4.67764,7.370818 0.11318,0.12733 0.32302,0.14721 0.42524,0.2835 0.085,0.11339 -0.10023,0.325 0,0.42523 0.0334,0.0334 0.11554,-0.0393 0.14174,0 0.0829,0.12432 0.0676,0.29552 0.14175,0.42525 0.14611,0.25568 2.09122,2.40969 1.70096,2.40969 M 98.66871,51.038407 c 0,1.174267 -0.85674,2.126198 -1.913583,2.126198 -1.056841,0 -1.913581,-0.951931 -1.913581,-2.126198 0,-1.174267 0.85674,-2.126198 1.913581,-2.126198 1.056843,0 1.913583,0.951931 1.913583,2.126198 z"
       sodipodi:nodetypes="csssscssssscssssssssssssssscccssscsssssscccssssssssssssssssssssssssssssssssssssssssccsssssssssssscssssscssssssssssssssscsssssssssssssssssccsssscsscssssssccssssssssssscsscssssscssssscsccsssscsscsssssccsccsssssssccccsssssssssssssssssssssccssscscsscsssssssscsssscsssssssssscsssssssssssscssccscssssscsccsssssscssssssssssssssssssssssssssssscssssssssscsssscssssssssssssssssssssssssssscsssss"
       inkscape:export-xdpi="99"
       inkscape:export-ydpi="99" />
  </g>
</svg>
